<?xml version="1.0" encoding="utf-8"?>
<!-- Generator: Adobe Illustrator 24.0.2, SVG Export Plug-In . SVG Version: 6.00 Build 0)  -->
<svg version="1.1" id="Layer_1" xmlns="http://www.w3.org/2000/svg" xmlns:xlink="http://www.w3.org/1999/xlink" x="0px" y="0px"
	 viewBox="0 0 24.8 20.8" style="enable-background:new 0 0 24.8 20.8;" xml:space="preserve">
<style type="text/css">
	.st0{fill:#EBEBEB;stroke:#8F8F8F;stroke-width:0.75;stroke-miterlimit:10;}
</style>
<path class="st0" d="M16.4,2.4c0-1.1,0.9-2,2-2h4c1.1,0,2,0.9,2,2v16c0,1.1-0.9,2-2,2h-4c-1.1,0-2-0.9-2-2V2.4z M13,8.8L3.3,0.9
	C2,0,0.4,0.5,0.4,1.6v17.6c0,1.1,1.5,1.7,2.7,0.8l9.9-8c0,0,1.4-1,1.4-1.6C14.4,9.7,13,8.8,13,8.8z"/>
</svg>
