<?xml version="1.0" encoding="utf-8"?>
<!-- Generator: Adobe Illustrator 24.0.2, SVG Export Plug-In . SVG Version: 6.00 Build 0)  -->
<svg version="1.1" id="Layer_1" xmlns="http://www.w3.org/2000/svg" xmlns:xlink="http://www.w3.org/1999/xlink" x="0px" y="0px"
	 viewBox="0 0 25 21" style="enable-background:new 0 0 25 21;" xml:space="preserve">
<style type="text/css">
	.st0{fill:#EBEBEB;stroke:#8F8F8F;stroke-width:0.75;stroke-miterlimit:10;}
</style>
<path class="st0" d="M8.5,18.5c0,1.1-0.9,2-2,2h-4c-1.1,0-2-0.9-2-2v-16c0-1.1,0.9-2,2-2h4c1.1,0,2,0.9,2,2V18.5z M10.5,10.5
	c0,0.7,1.4,1.6,1.4,1.6l9.9,8c1.2,0.9,2.7,0.3,2.7-0.8V1.7c0-1.1-1.6-1.6-2.9-0.6l-9.7,7.8C11.9,8.9,10.5,9.8,10.5,10.5z"/>
</svg>
